<?xml version="1.0" encoding="utf-8"?>
<!-- Generator: Adobe Illustrator 26.3.1, SVG Export Plug-In . SVG Version: 6.00 Build 0)  -->
<svg version="1.1" id="LOGO" xmlns="http://www.w3.org/2000/svg" xmlns:xlink="http://www.w3.org/1999/xlink" x="0px" y="0px"
	 viewBox="0 0 1003.4 408.54" style="enable-background:new 0 0 1003.4 408.54;" xml:space="preserve">
<style type="text/css">
	.st0{fill:#EFC100;}
</style>
<g>
	<g>
		<polygon points="336.97,251.99 336.97,308.04 348.86,319.07 385.32,319.07 396.95,307.44 396.95,251.95 377.04,251.95 
			377.04,303.07 357.33,303.07 357.33,251.99 		"/>
		<g>
			<path d="M873.86,251.95h57.13v16.37h-37.68v8.72h37.24v16.72h-37.24v9.02h38.7v16.37h-58.15V251.95z"/>
		</g>
		<polygon points="450.44,290.73 418.22,251.95 406.05,251.95 406.05,319.11 427.45,319.11 427.45,288.83 453.12,319.2 
			469.94,319.2 469.94,251.95 450.44,251.95 		"/>
		<polygon points="241.2,251.95 199.8,251.95 188.85,262.9 188.85,283.75 199.68,294.58 233.53,294.58 233.53,302.33 191.21,302.33 
			191.21,307.58 204.13,319.27 241.2,319.27 253.31,307.17 253.31,286.78 243.82,277.3 207.83,277.3 207.83,269.21 234.34,269.21 
			234.34,271.03 253.31,271.03 253.31,263.16 		"/>
		<polygon points="328.04,251.95 262.41,251.95 262.41,271.03 284.49,271.03 284.49,319.27 305.95,319.27 305.95,271.03 
			328.04,271.03 		"/>
		<polygon points="544.67,251.95 479.04,251.95 479.04,271.03 501.13,271.03 501.13,319.27 522.59,319.27 522.59,271.03 
			544.67,271.03 		"/>
		<path d="M612.45,251.95h-36.56h-17.87h-0.63v67.12h18.5V298.6h36.56l11.9-11.9v-22.85L612.45,251.95z M602.79,281.92h-28.87V267.7
			h28.87V281.92z"/>
		<polygon points="656.15,296.87 656.15,251.95 633.43,251.95 633.43,296.87 633.43,319.07 633.43,319.59 696.13,319.59 
			696.13,296.87 		"/>
		<g>
			<path d="M737.07,251.91h20.14l31.84,67.67h-18.98l-7.01-13.21h-32.23l-7.01,13.21h-18.59L737.07,251.91z M753.51,287.85
				l-6.37-11.87l-6.37,11.87H753.51z M747.14,271.03"/>
		</g>
		<polygon points="864.76,271.03 864.76,262.85 853.35,251.44 809.93,251.44 798.22,263.16 798.22,284.87 798.22,285.77 
			798.22,307.48 809.93,319.2 853.35,319.2 864.76,307.79 864.76,299.61 845.68,299.61 845.68,303.24 817.61,303.24 817.61,285.75 
			817.61,284.89 817.61,267.4 845.68,267.4 845.68,271.03 		"/>
	</g>
	<polygon points="385.51,84.06 405.21,84.06 383.4,62.25 350.65,62.25 172.55,62.25 164.71,62.25 80.53,136.77 101.57,136.77 
		170.48,76.18 377.63,76.18 	"/>
	<polygon class="st0" points="541.11,243.56 191.56,243.56 170.21,224.69 522.13,224.69 	"/>
	<polygon class="st0" points="557.39,243.56 931.24,243.56 941.91,224.69 557.39,224.69 	"/>
	<polygon class="st0" points="545.31,346.65 234.92,346.65 213.95,327.78 545.31,327.78 	"/>
	<polygon points="184.06,243.56 101.57,171.3 80.53,171.3 162.54,243.6 	"/>
	<polygon class="st0" points="168.11,216.13 168.11,171.3 109.26,171.3 160.38,216.13 	"/>
	<polygon class="st0" points="168.11,89.14 168.11,137.03 109.26,137.03 163.99,89.14 	"/>
	<g>
		<path d="M280.17,141.76v-34.08l-18.4-18.4h-90.5l0.25,51.41H76.37l-14.88,13.49l14.88,13.49h95.27l0.23,48.47h89.97l22.11-22.11
			v-30.59l-12.72-12.72L280.17,141.76z M246.69,185.84h-39.99v-19.69h39.99V185.84z M246.69,136.77h-39.99v-19.69h39.99V136.77z"/>
		<polygon points="372.71,185.84 335.45,185.84 335.45,89.28 296.98,89.28 296.98,195.23 319.45,216.07 388.36,216.07 
			410.34,194.09 410.34,89.21 372.71,89.21 		"/>
		<polygon points="512.3,161.61 427.48,61.9 427.48,215.83 468.38,215.83 468.38,157.97 549.56,239.24 549.56,89.21 512.3,89.21 		
			"/>
		<polygon points="687.01,88.85 634.81,88.85 609.61,136.77 609.61,88.85 566.42,88.85 566.42,215.83 609.61,215.83 609.61,170.89 
			638.01,215.83 689.41,215.83 640.01,152.34 		"/>
		<polygon points="739.99,167.75 809.96,167.75 809.96,136.33 739.99,136.33 739.99,119.95 810.78,119.95 810.78,89.21 
			703.45,89.21 703.45,215.44 812.69,215.44 812.69,184.69 739.99,184.69 		"/>
		<path d="M914.26,165.24l27.25-17.25v-15.8v-0.74v-15.8l-27.79-25.83h-39.28h-37.13h-9.47v125.62H871v-42.93l20.26,42.93h50.65
			L914.26,165.24z M903.05,138.79h-39.99V119.1h39.99V138.79z"/>
	</g>
	<g>
		<path d="M573.43,346.46h-4.37v-7.85h-10.92v7.85h-4.37v-18.83h4.37v7.85h10.92v-7.85h4.37V346.46z"/>
		<path d="M589.36,346.46h-5.24v-18.83h5.24V346.46z"/>
		<path d="M617.53,330.77h-6.55v15.69h-4.37v-15.69h-6.55v-3.14h17.47V330.77z"/>
		<path d="M668.86,327.63l-7.64,12.55v6.28h-4.37v-6.28l-7.64-12.55h4.77l5.06,8.31l5.06-8.31H668.86z"/>
		<path d="M683.36,346.46l-3.8-1.57V329.2l3.8-1.57h12.05l3.8,1.57v15.69l-3.76,1.57H683.36z M694.85,343.32v-12.55h-10.92v12.55
			H694.85z M689.04,346.49l-0.04-0.03h6.46l0.04,0.03H689.04z"/>
		<polygon points="725.2,327.6 725.2,330.77 725.2,333.94 725.2,337.11 725.2,343.32 714.28,343.32 714.28,337.11 714.28,333.94 
			714.28,330.8 714.28,330.77 714.28,327.63 709.92,327.63 709.92,330.77 709.92,330.8 709.92,333.94 709.92,337.11 709.92,344.89 
			713.71,346.46 714.28,346.46 725.2,346.46 725.77,346.46 729.57,344.89 729.57,337.11 729.57,333.94 729.57,330.77 729.57,327.6 
					"/>
		<path d="M759.92,346.46h-4.62l-3.8-7.91h-6.87v7.91h-4.37v-18.83h15.85l3.8,1.57v7.78l-3.8,1.57L759.92,346.46z M755.55,335.41
			v-4.65h-10.92v4.65H755.55z"/>
		<path d="M806.89,346.46h-15.29v-18.83h4.37v15.69h10.92V346.46z"/>
		<path d="M822.83,346.46h-5.24v-18.83h5.24V346.46z"/>
		<path d="M857.55,346.46h-4.37v-10.89l-4.76,10.89h-5.77l-4.76-10.89v10.89h-4.37v-18.83H839l6.54,14.95l6.54-14.95h5.47V346.46z"
			/>
		<path d="M873.49,346.46h-5.24v-18.83h5.24V346.46z"/>
		<path d="M901.66,330.77h-6.55v15.69h-4.37v-15.69h-6.55v-3.14h17.47V330.77z"/>
		<path d="M932.01,344.89l-3.8,1.57h-12.05l-3.8-1.57v-2.35h4.37v0.78h10.92v-4.71h-11.49l-3.8-1.57v-7.85l3.8-1.57h12.05l3.8,1.57
			v2.35h-4.37v-0.79h-10.92v4.71h11.49l3.8,1.57V344.89z"/>
	</g>
</g>
</svg>
