<svg width="500" height="120" viewBox="0 0 500 120" xmlns="http://www.w3.org/2000/svg">
    <defs>
        <!-- Gradiente para el frente de las letras -->
        <linearGradient id="frontGradient" x1="0%" y1="0%" x2="0%" y2="100%">
            <stop offset="0%" style="stop-color:#ffffff;stop-opacity:1" />
            <stop offset="70%" style="stop-color:#d0d0d0;stop-opacity:1" />
        </linearGradient>

        <!-- Gradiente para los bordes laterales (efecto 3D) -->
        <linearGradient id="sideGradient" x1="0%" y1="0%" x2="100%" y2="0%">
            <stop offset="0%" style="stop-color:#a0a0a0;stop-opacity:1" />
            <stop offset="100%" style="stop-color:#808080;stop-opacity:1" />
        </linearGradient>

        <!-- Filtro para sombra -->
        <filter id="shadow" x="-20%" y="-20%" width="140%" height="140%">
            <feGaussianBlur in="SourceAlpha" stdDeviation="2" result="blur"/>
            <feOffset in="blur" dx="3" dy="3" result="offsetBlur"/>
            <feMerge>
                <feMergeNode in="offsetBlur"/>
                <feMergeNode in="SourceGraphic"/>
            </feMerge>
        </filter>
    </defs>

    <!-- Grupo para "EL" -->
    <g transform="translate(60,70)" filter="url(#shadow)">
        <!-- E -->
        <path d="M0,0 h30 v5 h-25 v15 h20 v5 h-20 v15 h25 v5 h-30 z" fill="url(#frontGradient)"/>
        <path d="M0,0 l-3,3 v40 l3,3 v-46" fill="url(#sideGradient)"/>

        <!-- L -->
        <g transform="translate(40,0)">
            <path d="M0,0 h5 v40 h25 v5 h-30 z" fill="url(#frontGradient)"/>
            <path d="M0,0 l-3,3 v40 l3,3 v-46" fill="url(#sideGradient)"/>
        </g>
    </g>

    <!-- Grupo para "BUNKER" -->
    <g transform="translate(140,70)" filter="url(#shadow)">
        <!-- B -->
        <path d="M0,0 h25 q5,0 5,5 v12 q0,3 -5,3 q5,0 5,3 v12 q0,5 -5,5 h-25 z
             M5,5 v15 h15 q2,0 2,-2 v-11 q0,-2 -2,-2 z
             M5,25 v15 h15 q2,0 2,-2 v-11 q0,-2 -2,-2 z" fill="url(#frontGradient)"/>
        <path d="M0,0 l-3,3 v40 l3,3 v-46" fill="url(#sideGradient)"/>

        <!-- Bunker Icon (replacing U) -->
        <g transform="translate(40,-5)">
            <!-- Base del búnker -->
            <path d="M0,15
               L10,0 L30,0 L40,15
               L40,45 L0,45 Z"
                  fill="url(#frontGradient)"/>
            <!-- Efecto lateral del búnker -->
            <path d="M0,15 l-3,3 v27 l3,3 v-33" fill="url(#sideGradient)"/>
            <!-- Ventana -->
            <rect x="15" y="20" width="10" height="8" fill="#a0a0a0"/>
            <!-- Puerta -->
            <rect x="13" y="30" width="14" height="15" fill="#909090"/>
        </g>

        <!-- N -->
        <g transform="translate(90,0)">
            <path d="M0,0 h5 v35 l25,-35 h5 v45 h-5 v-35 l-25,35 h-5 z" fill="url(#frontGradient)"/>
            <path d="M0,0 l-3,3 v40 l3,3 v-46" fill="url(#sideGradient)"/>
        </g>

        <!-- K -->
        <g transform="translate(130,0)">
            <path d="M0,0 h5 v20 l23,-20 h7 l-25,22 l25,23 h-7 l-23,-21 v21 h-5 z" fill="url(#frontGradient)"/>
            <path d="M0,0 l-3,3 v40 l3,3 v-46" fill="url(#sideGradient)"/>
        </g>

        <!-- E -->
        <g transform="translate(170,0)">
            <path d="M0,0 h30 v5 h-25 v15 h20 v5 h-20 v15 h25 v5 h-30 z" fill="url(#frontGradient)"/>
            <path d="M0,0 l-3,3 v40 l3,3 v-46" fill="url(#sideGradient)"/>
        </g>

        <!-- R -->
        <g transform="translate(210,0)">
            <path d="M0,0 h25 q5,0 5,5 v15 q0,5 -5,5 l15,20 h-7 l-15,-20 h-13 v20 h-5 z
             M5,5 v17 h15 q2,0 2,-2 v-13 q0,-2 -2,-2 z" fill="url(#frontGradient)"/>
            <path d="M0,0 l-3,3 v40 l3,3 v-46" fill="url(#sideGradient)"/>
        </g>
    </g>
</svg>
